PathFileType	4	(X/Y/Z)	G:\GRF\jawan data\CompiledGRF\03. Mohit Kumar\0231~ac~Standing_markers.trc
DataRate	CameraRate	NumFrames	NumMarkers	Units	OrigDataRate	OrigDataStartFrame	OrigNumFrames
100.000000	100.000000	5	18	mm	100.000000	511	584
Frame#	Time	c7			r should			l should			sacrum			r asis			r bar 1			r knee 1			r bar 2			r mall			r heel			r met			l asis			l bar 1			l knee 1			l bar 2			l mall			l heel			l met			
		X1	Y1	Z1	X2	Y2	Z2	X3	Y3	Z3	X4	Y4	Z4	X5	Y5	Z5	X6	Y6	Z6	X7	Y7	Z7	X8	Y8	Z8	X9	Y9	Z9	X10	Y10	Z10	X11	Y11	Z11	X12	Y12	Z12	X13	Y13	Z13	X14	Y14	Z14	X15	Y15	Z15	X16	Y16	Z16	X17	Y17	Z17	X18	Y18	Z18	

512	5.11	322.0914916992188	1518.631958007813	161.4621887207031	409.8856811523438	1455.972412109375	330.3432006835938	405.5430297851563	1471.955078125	-8.949299812316895	291.7562255859375	1058.809326171875	140.1957702636719	469.4964904785156	1016.133666992188	272.0561828613281	351.25732421875	612.2938232421875	336.1096801757813	359.9705505371094	524.2595825195313	284.9374389648438	289.3355712890625	202.2754211425781	303.7575988769531	302.7835998535156	75.55941009521484	242.1667022705078	251.8047332763672	38.77385330200195	190.0951690673828	453.6024475097656	38.5185661315918	253.4111785888672	478.4797973632813	1023.696533203125	19.64290809631348	361.04541015625	607.3427124023438	-37.36418533325195	362.6205444335938	518.2555541992188	20.50903129577637	295.7168273925781	245.7563323974609	-17.44294166564941	300.2489929199219	76.03262329101563	58.10915756225586	247.6240386962891	34.88447189331055	117.2866897583008	447.7860412597656	39.35476303100586	58.0960807800293	
513	5.12	322.1535034179688	1518.640991210938	161.5489349365234	409.7313537597656	1455.946166992188	330.4433898925781	405.51904296875	1471.91943359375	-8.862150192260742	291.5718994140625	1058.7998046875	140.2364349365234	469.3890686035156	1016.116760253906	272.0627136230469	351.1458740234375	612.2845458984375	336.1222229003906	359.854736328125	524.22900390625	284.9338073730469	289.3960571289063	202.2212982177734	303.7482604980469	302.8383483886719	75.56329345703125	242.1976165771484	251.5939483642578	38.84199142456055	190.0999145507813	453.6200561523438	38.51570129394531	253.3893585205078	478.4124145507813	1023.72802734375	19.72429656982422	361.1077270507813	607.3515625	-37.30165100097656	362.4339904785156	518.2088012695313	20.4851188659668	295.7559509277344	245.7410125732422	-17.42933654785156	300.272705078125	76.04273986816406	58.16279602050781	247.5213470458984	34.95267486572266	117.3169784545898	447.8236694335938	39.33425140380859	58.09151077270508	
514	5.13	321.9639587402344	1518.6904296875	161.65966796875	409.55517578125	1455.901977539063	330.5295104980469	405.0602416992188	1471.996459960938	-8.748563766479492	291.4820251464844	1058.772216796875	140.2907257080078	469.443115234375	1016.176208496094	272.0969543457031	351.140625	612.300537109375	336.1685180664063	359.7342224121094	524.1923217773438	284.9043273925781	289.3286437988281	202.2217102050781	303.7659301757813	302.8287963867188	75.56572723388672	242.1746520996094	252.0897979736328	38.64762878417969	190.1253967285156	453.6266479492188	38.59347152709961	253.3816680908203	478.3652038574219	1023.76416015625	19.70897674560547	361.1698608398438	607.3544311523438	-37.26612091064453	362.3804016113281	518.1254272460938	20.49292945861816	295.7723999023438	245.7554931640625	-17.43840408325195	300.3218688964844	76.05011749267578	58.1110954284668	247.6873016357422	34.7292366027832	117.3315811157227	447.7536926269531	39.37411880493164	58.07944488525391	
515	5.14	321.9139099121094	1518.677001953125	161.7611541748047	409.5375366210938	1455.88623046875	330.6437072753906	405.0045776367188	1472.003051757813	-8.592279434204102	291.5151977539063	1058.776977539063	140.3525543212891	469.4125061035156	1016.21435546875	272.1048889160156	351.1198120117188	612.2963256835938	336.2118835449219	359.8069458007813	524.2022705078125	284.9216613769531	289.2489929199219	202.2351837158203	303.76953125	302.8040161132813	75.54746246337891	242.1905059814453	252.0471801757813	38.66679763793945	190.1059112548828	453.5526123046875	38.59920883178711	253.3719482421875	478.3719177246094	1023.775695800781	19.71249580383301	361.1290893554688	607.3330078125	-37.22224426269531	362.5791015625	518.2379760742188	20.49892044067383	295.7060241699219	245.7599334716797	-17.43245506286621	300.3826293945313	76.02845001220703	58.06460952758789	247.6462249755859	34.78022766113281	117.3638076782227	447.7570190429688	39.33960723876953	58.14216613769531	
516	5.15	321.9754638671875	1518.689575195313	161.872802734375	409.4265747070313	1455.859375	330.7440795898438	404.9830322265625	1471.9970703125	-8.494552612304688	291.3410034179688	1058.809814453125	140.379638671875	469.1761779785156	1016.182434082031	272.1083984375	350.992919921875	612.275390625	336.2266845703125	359.7314453125	524.1860961914063	284.9817504882813	289.2697448730469	202.2196044921875	303.8179931640625	302.749267578125	75.56666564941406	242.1885070800781	251.6799011230469	38.85897827148438	190.0791168212891	453.5279235839844	38.56378173828125	253.3902282714844	478.2232055664063	1023.770568847656	19.73251533508301	361.0723876953125	607.3265380859375	-37.20540618896484	362.5461120605469	518.210693359375	20.49779510498047	295.6297912597656	245.7412567138672	-17.42779541015625	300.3585205078125	75.99069213867188	58.13251495361328	247.5755920410156	34.78052520751953	117.4099655151367	447.6912231445313	39.30586624145508	58.16062927246094	
